<svg xmlns="http://www.w3.org/2000/svg" xmlns:xlink="http://www.w3.org/1999/xlink" width="500" zoomAndPan="magnify" viewBox="0 0 375 165.000002" height="220" preserveAspectRatio="xMidYMid meet" version="1.0"><defs><g/><clipPath id="e93c328e70"><path d="M 1.128906 3 L 85 3 L 85 125 L 1.128906 125 Z M 1.128906 3 " clip-rule="nonzero"/></clipPath><clipPath id="652ea8f5cd"><path d="M 348 3 L 373.871094 3 L 373.871094 123 L 348 123 Z M 348 3 " clip-rule="nonzero"/></clipPath><clipPath id="a326eda023"><path d="M 358 134 L 373.871094 134 L 373.871094 150 L 358 150 Z M 358 134 " clip-rule="nonzero"/></clipPath></defs><g clip-path="url(#e93c328e70)"><g fill="#000229" fill-opacity="1"><g transform="translate(-1.826163, 122.540094)"><g><path d="M 13.09375 -8.75 C 6.476562 -15.96875 3.171875 -24.8125 3.171875 -35.28125 C 3.171875 -45.757812 6.476562 -54.628906 13.09375 -61.890625 C 19.707031 -69.148438 28.117188 -72.78125 38.328125 -72.78125 C 47.691406 -72.78125 55.410156 -69.835938 61.484375 -63.953125 L 61.484375 -118.546875 L 85.875 -118.546875 L 85.875 0 L 61.75 0 L 61.75 -8 L 61.484375 -8 C 55.410156 -1.289062 47.691406 2.0625 38.328125 2.0625 C 28.117188 2.0625 19.707031 -1.539062 13.09375 -8.75 Z M 33.828125 -47.28125 C 30.660156 -44.15625 29.078125 -40.15625 29.078125 -35.28125 C 29.078125 -30.414062 30.59375 -26.441406 33.625 -23.359375 C 36.664062 -20.285156 40.664062 -18.75 45.625 -18.75 C 50.40625 -18.75 54.332031 -20.3125 57.40625 -23.4375 C 60.488281 -26.5625 62.03125 -30.507812 62.03125 -35.28125 C 62.03125 -40.15625 60.441406 -44.15625 57.265625 -47.28125 C 54.097656 -50.40625 50.21875 -51.96875 45.625 -51.96875 C 40.9375 -51.96875 37.003906 -50.40625 33.828125 -47.28125 Z M 33.828125 -47.28125 "/></g></g></g></g><g fill="#000229" fill-opacity="1"><g transform="translate(79.340647, 122.540094)"><g><path d="M 10.609375 -110.125 C 13.460938 -112.976562 16.863281 -114.40625 20.8125 -114.40625 C 24.757812 -114.40625 28.15625 -112.976562 31 -110.125 C 33.851562 -107.28125 35.28125 -103.882812 35.28125 -99.9375 C 35.28125 -95.988281 33.851562 -92.585938 31 -89.734375 C 28.15625 -86.890625 24.757812 -85.46875 20.8125 -85.46875 C 16.863281 -85.46875 13.460938 -86.890625 10.609375 -89.734375 C 7.765625 -92.585938 6.34375 -95.988281 6.34375 -99.9375 C 6.34375 -103.882812 7.765625 -107.28125 10.609375 -110.125 Z M 8.265625 -70.71875 L 8.265625 0 L 32.671875 0 L 32.671875 -70.71875 Z M 8.265625 -70.71875 "/></g></g></g><g fill="#000229" fill-opacity="1"><g transform="translate(108.001537, 122.540094)"><g><path d="M 5.09375 17.375 L 25.09375 7.578125 C 28.757812 13.640625 35.144531 16.671875 44.25 16.671875 C 48.476562 16.671875 52.40625 15.316406 56.03125 12.609375 C 59.664062 9.898438 61.484375 5.742188 61.484375 0.140625 L 61.484375 -5.09375 C 57.160156 -0.320312 49.441406 2.0625 38.328125 2.0625 C 28.117188 2.0625 19.707031 -1.539062 13.09375 -8.75 C 6.476562 -15.96875 3.171875 -24.8125 3.171875 -35.28125 C 3.171875 -45.757812 6.476562 -54.628906 13.09375 -61.890625 C 19.707031 -69.148438 28.117188 -72.78125 38.328125 -72.78125 C 47.421875 -72.78125 55 -69.976562 61.0625 -64.375 L 61.484375 -64.375 L 61.484375 -70.71875 L 85.875 -70.71875 L 85.875 1.9375 C 85.875 13.414062 82.0625 22.28125 74.4375 28.53125 C 66.8125 34.78125 56.75 37.90625 44.25 37.90625 C 24.03125 37.90625 10.976562 31.0625 5.09375 17.375 Z M 33.828125 -47.28125 C 30.660156 -44.15625 29.078125 -40.15625 29.078125 -35.28125 C 29.078125 -30.414062 30.59375 -26.441406 33.625 -23.359375 C 36.664062 -20.285156 40.664062 -18.75 45.625 -18.75 C 50.40625 -18.75 54.332031 -20.3125 57.40625 -23.4375 C 60.488281 -26.5625 62.03125 -30.507812 62.03125 -35.28125 C 62.03125 -40.15625 60.441406 -44.15625 57.265625 -47.28125 C 54.097656 -50.40625 50.21875 -51.96875 45.625 -51.96875 C 40.9375 -51.96875 37.003906 -50.40625 33.828125 -47.28125 Z M 33.828125 -47.28125 "/></g></g></g><g fill="#000229" fill-opacity="1"><g transform="translate(189.168347, 122.540094)"><g><path d="M 10.609375 -110.125 C 13.460938 -112.976562 16.863281 -114.40625 20.8125 -114.40625 C 24.757812 -114.40625 28.15625 -112.976562 31 -110.125 C 33.851562 -107.28125 35.28125 -103.882812 35.28125 -99.9375 C 35.28125 -95.988281 33.851562 -92.585938 31 -89.734375 C 28.15625 -86.890625 24.757812 -85.46875 20.8125 -85.46875 C 16.863281 -85.46875 13.460938 -86.890625 10.609375 -89.734375 C 7.765625 -92.585938 6.34375 -95.988281 6.34375 -99.9375 C 6.34375 -103.882812 7.765625 -107.28125 10.609375 -110.125 Z M 8.265625 -70.71875 L 8.265625 0 L 32.671875 0 L 32.671875 -70.71875 Z M 8.265625 -70.71875 "/></g></g></g><g fill="#000229" fill-opacity="1"><g transform="translate(217.829237, 122.540094)"><g><path d="M 12.40625 -70.71875 L 12.40625 -97.046875 L 36.796875 -97.046875 L 36.796875 -70.71875 L 51.6875 -70.71875 L 51.6875 -52.109375 L 36.796875 -52.109375 L 36.796875 -29.640625 C 36.796875 -23.109375 38.632812 -19.84375 42.3125 -19.84375 C 43.238281 -19.84375 44.207031 -20.023438 45.21875 -20.390625 C 46.226562 -20.765625 47.007812 -21.132812 47.5625 -21.5 L 48.390625 -22.0625 L 54.453125 -2.34375 C 49.210938 0.59375 43.238281 2.0625 36.53125 2.0625 C 31.9375 2.0625 27.984375 1.257812 24.671875 -0.34375 C 21.367188 -1.945312 18.863281 -4.101562 17.15625 -6.8125 C 15.457031 -9.53125 14.238281 -12.378906 13.5 -15.359375 C 12.769531 -18.347656 12.40625 -21.546875 12.40625 -24.953125 L 12.40625 -52.109375 L 2.203125 -52.109375 L 2.203125 -70.71875 Z M 12.40625 -70.71875 "/></g></g></g><g fill="#000229" fill-opacity="1"><g transform="translate(259.306493, 122.540094)"><g><path d="M 13.09375 -8.75 C 6.476562 -15.96875 3.171875 -24.8125 3.171875 -35.28125 C 3.171875 -45.757812 6.476562 -54.628906 13.09375 -61.890625 C 19.707031 -69.148438 28.117188 -72.78125 38.328125 -72.78125 C 47.691406 -72.78125 55.410156 -69.835938 61.484375 -63.953125 L 61.484375 -70.71875 L 85.875 -70.71875 L 85.875 0 L 61.75 0 L 61.75 -8 L 61.484375 -8 C 55.410156 -1.289062 47.691406 2.0625 38.328125 2.0625 C 28.117188 2.0625 19.707031 -1.539062 13.09375 -8.75 Z M 33.828125 -47.28125 C 30.660156 -44.15625 29.078125 -40.15625 29.078125 -35.28125 C 29.078125 -30.414062 30.59375 -26.441406 33.625 -23.359375 C 36.664062 -20.285156 40.664062 -18.75 45.625 -18.75 C 50.40625 -18.75 54.332031 -20.3125 57.40625 -23.4375 C 60.488281 -26.5625 62.03125 -30.507812 62.03125 -35.28125 C 62.03125 -40.15625 60.441406 -44.15625 57.265625 -47.28125 C 54.097656 -50.40625 50.21875 -51.96875 45.625 -51.96875 C 40.9375 -51.96875 37.003906 -50.40625 33.828125 -47.28125 Z M 33.828125 -47.28125 "/></g></g></g><g clip-path="url(#652ea8f5cd)"><g fill="#000229" fill-opacity="1"><g transform="translate(340.473287, 122.540094)"><g><path d="M 8.265625 0 L 8.265625 -118.546875 L 32.671875 -118.546875 L 32.671875 0 Z M 8.265625 0 "/></g></g></g></g><g fill="#ef4444" fill-opacity="1"><g transform="translate(213.196482, 149.853082)"><g><path d="M 10.3125 -19.078125 C 16.988281 -19.078125 20.328125 -15.898438 20.328125 -9.546875 C 20.328125 -3.179688 16.988281 0 10.3125 0 L 2.046875 0 L 2.046875 -19.078125 Z M 8.1875 -4.578125 L 10.203125 -4.578125 C 12.773438 -4.578125 14.0625 -5.953125 14.0625 -8.703125 L 14.0625 -10.375 C 14.0625 -13.125 12.773438 -14.5 10.203125 -14.5 L 8.1875 -14.5 Z M 8.1875 -4.578125 "/></g></g></g><g fill="#ef4444" fill-opacity="1"><g transform="translate(233.579372, 149.853082)"><g><path d="M 9.234375 -14.96875 C 11.804688 -14.96875 13.828125 -14.316406 15.296875 -13.015625 C 16.765625 -11.710938 17.5 -9.816406 17.5 -7.328125 C 17.5 -4.828125 16.765625 -2.925781 15.296875 -1.625 C 13.828125 -0.320312 11.804688 0.328125 9.234375 0.328125 C 6.660156 0.328125 4.644531 -0.316406 3.1875 -1.609375 C 1.726562 -2.898438 1 -4.804688 1 -7.328125 C 1 -9.835938 1.726562 -11.738281 3.1875 -13.03125 C 4.644531 -14.320312 6.660156 -14.96875 9.234375 -14.96875 Z M 9.234375 -11.234375 C 7.421875 -11.234375 6.515625 -10.1875 6.515625 -8.09375 L 6.515625 -6.515625 C 6.515625 -4.441406 7.421875 -3.40625 9.234375 -3.40625 C 11.066406 -3.40625 11.984375 -4.441406 11.984375 -6.515625 L 11.984375 -8.09375 C 11.984375 -10.1875 11.066406 -11.234375 9.234375 -11.234375 Z M 9.234375 -11.234375 "/></g></g></g><g fill="#ef4444" fill-opacity="1"><g transform="translate(250.883963, 149.853082)"><g><path d="M 21.109375 -14.96875 C 22.773438 -14.96875 24.019531 -14.492188 24.84375 -13.546875 C 25.675781 -12.597656 26.09375 -11.242188 26.09375 -9.484375 L 26.09375 0 L 20.578125 0 L 20.578125 -8.8125 C 20.578125 -9.445312 20.421875 -9.953125 20.109375 -10.328125 C 19.804688 -10.710938 19.378906 -10.90625 18.828125 -10.90625 C 18.179688 -10.90625 17.65625 -10.679688 17.25 -10.234375 C 16.84375 -9.785156 16.640625 -9.238281 16.640625 -8.59375 L 16.640625 0 L 11.125 0 L 11.125 -8.8125 C 11.125 -9.445312 10.96875 -9.953125 10.65625 -10.328125 C 10.351562 -10.710938 9.925781 -10.90625 9.375 -10.90625 C 8.726562 -10.90625 8.203125 -10.679688 7.796875 -10.234375 C 7.390625 -9.785156 7.1875 -9.238281 7.1875 -8.59375 L 7.1875 0 L 1.65625 0 L 1.65625 -14.640625 L 6.1875 -14.640625 L 6.546875 -12.453125 C 7.097656 -13.234375 7.832031 -13.847656 8.75 -14.296875 C 9.664062 -14.742188 10.628906 -14.96875 11.640625 -14.96875 C 13.847656 -14.96875 15.328125 -14.128906 16.078125 -12.453125 C 16.660156 -13.234375 17.398438 -13.847656 18.296875 -14.296875 C 19.191406 -14.742188 20.128906 -14.96875 21.109375 -14.96875 Z M 21.109375 -14.96875 "/></g></g></g><g fill="#ef4444" fill-opacity="1"><g transform="translate(277.423468, 149.853082)"><g><path d="M 1.859375 -16.359375 L 1.859375 -20.109375 L 7.375 -20.109375 L 7.375 -16.359375 Z M 1.859375 0 L 1.859375 -14.640625 L 7.375 -14.640625 L 7.375 0 Z M 1.859375 0 "/></g></g></g><g fill="#ef4444" fill-opacity="1"><g transform="translate(285.465429, 149.853082)"><g><path d="M 11.765625 -14.96875 C 13.460938 -14.96875 14.734375 -14.492188 15.578125 -13.546875 C 16.429688 -12.609375 16.859375 -11.253906 16.859375 -9.484375 L 16.859375 0 L 11.34375 0 L 11.34375 -8.8125 C 11.34375 -9.445312 11.179688 -9.953125 10.859375 -10.328125 C 10.535156 -10.710938 10.078125 -10.90625 9.484375 -10.90625 C 8.796875 -10.90625 8.238281 -10.679688 7.8125 -10.234375 C 7.394531 -9.785156 7.1875 -9.238281 7.1875 -8.59375 L 7.1875 0 L 1.65625 0 L 1.65625 -14.640625 L 6.1875 -14.640625 L 6.546875 -12.421875 C 7.117188 -13.203125 7.867188 -13.820312 8.796875 -14.28125 C 9.734375 -14.738281 10.722656 -14.96875 11.765625 -14.96875 Z M 11.765625 -14.96875 "/></g></g></g><g fill="#ef4444" fill-opacity="1"><g transform="translate(302.770022, 149.853082)"><g><path d="M 8.90625 -14.96875 C 11.144531 -14.96875 12.960938 -14.59375 14.359375 -13.84375 C 15.765625 -13.101562 16.46875 -11.890625 16.46875 -10.203125 L 16.46875 -4.5 C 16.46875 -4.175781 16.539062 -3.910156 16.6875 -3.703125 C 16.84375 -3.503906 17.066406 -3.40625 17.359375 -3.40625 L 18.359375 -3.40625 L 18.359375 -0.21875 C 18.304688 -0.1875 18.160156 -0.128906 17.921875 -0.046875 C 17.691406 0.0351562 17.363281 0.117188 16.9375 0.203125 C 16.519531 0.285156 16.03125 0.328125 15.46875 0.328125 C 14.394531 0.328125 13.507812 0.164062 12.8125 -0.15625 C 12.125 -0.476562 11.65625 -0.925781 11.40625 -1.5 C 10.695312 -0.945312 9.90625 -0.503906 9.03125 -0.171875 C 8.164062 0.160156 7.148438 0.328125 5.984375 0.328125 C 2.546875 0.328125 0.828125 -1.035156 0.828125 -3.765625 C 0.828125 -5.191406 1.210938 -6.28125 1.984375 -7.03125 C 2.753906 -7.78125 3.859375 -8.289062 5.296875 -8.5625 C 6.734375 -8.84375 8.617188 -8.984375 10.953125 -8.984375 L 10.953125 -9.703125 C 10.953125 -10.273438 10.753906 -10.707031 10.359375 -11 C 9.960938 -11.300781 9.445312 -11.453125 8.8125 -11.453125 C 8.238281 -11.453125 7.742188 -11.347656 7.328125 -11.140625 C 6.921875 -10.941406 6.71875 -10.617188 6.71875 -10.171875 L 6.71875 -10.0625 L 1.28125 -10.0625 C 1.257812 -10.15625 1.25 -10.285156 1.25 -10.453125 C 1.25 -11.835938 1.910156 -12.9375 3.234375 -13.75 C 4.554688 -14.5625 6.445312 -14.96875 8.90625 -14.96875 Z M 10.953125 -6.375 C 9.378906 -6.375 8.21875 -6.203125 7.46875 -5.859375 C 6.71875 -5.523438 6.34375 -5.070312 6.34375 -4.5 C 6.34375 -3.570312 6.972656 -3.109375 8.234375 -3.109375 C 8.953125 -3.109375 9.582031 -3.300781 10.125 -3.6875 C 10.675781 -4.070312 10.953125 -4.550781 10.953125 -5.125 Z M 10.953125 -6.375 "/></g></g></g><g fill="#ef4444" fill-opacity="1"><g transform="translate(320.074614, 149.853082)"><g><path d="M 11.421875 -14.640625 L 11.421875 -10.90625 L 8.3125 -10.90625 L 8.3125 -5.328125 C 8.3125 -4.660156 8.421875 -4.171875 8.640625 -3.859375 C 8.867188 -3.554688 9.28125 -3.40625 9.875 -3.40625 L 11.421875 -3.40625 L 11.421875 -0.171875 C 10.984375 -0.015625 10.410156 0.101562 9.703125 0.1875 C 9.003906 0.28125 8.394531 0.328125 7.875 0.328125 C 6.25 0.328125 4.992188 0.0351562 4.109375 -0.546875 C 3.234375 -1.140625 2.796875 -2.148438 2.796875 -3.578125 L 2.796875 -10.90625 L 0.75 -10.90625 L 0.75 -14.640625 L 3.015625 -14.640625 L 4.21875 -19.078125 L 8.3125 -19.078125 L 8.3125 -14.640625 Z M 11.421875 -14.640625 "/></g></g></g><g fill="#ef4444" fill-opacity="1"><g transform="translate(331.194875, 149.853082)"><g><path d="M 1.859375 -16.359375 L 1.859375 -20.109375 L 7.375 -20.109375 L 7.375 -16.359375 Z M 1.859375 0 L 1.859375 -14.640625 L 7.375 -14.640625 L 7.375 0 Z M 1.859375 0 "/></g></g></g><g fill="#ef4444" fill-opacity="1"><g transform="translate(339.236836, 149.853082)"><g><path d="M 9.234375 -14.96875 C 11.804688 -14.96875 13.828125 -14.316406 15.296875 -13.015625 C 16.765625 -11.710938 17.5 -9.816406 17.5 -7.328125 C 17.5 -4.828125 16.765625 -2.925781 15.296875 -1.625 C 13.828125 -0.320312 11.804688 0.328125 9.234375 0.328125 C 6.660156 0.328125 4.644531 -0.316406 3.1875 -1.609375 C 1.726562 -2.898438 1 -4.804688 1 -7.328125 C 1 -9.835938 1.726562 -11.738281 3.1875 -13.03125 C 4.644531 -14.320312 6.660156 -14.96875 9.234375 -14.96875 Z M 9.234375 -11.234375 C 7.421875 -11.234375 6.515625 -10.1875 6.515625 -8.09375 L 6.515625 -6.515625 C 6.515625 -4.441406 7.421875 -3.40625 9.234375 -3.40625 C 11.066406 -3.40625 11.984375 -4.441406 11.984375 -6.515625 L 11.984375 -8.09375 C 11.984375 -10.1875 11.066406 -11.234375 9.234375 -11.234375 Z M 9.234375 -11.234375 "/></g></g></g><g clip-path="url(#a326eda023)"><g fill="#ef4444" fill-opacity="1"><g transform="translate(356.541421, 149.853082)"><g><path d="M 11.765625 -14.96875 C 13.460938 -14.96875 14.734375 -14.492188 15.578125 -13.546875 C 16.429688 -12.609375 16.859375 -11.253906 16.859375 -9.484375 L 16.859375 0 L 11.34375 0 L 11.34375 -8.8125 C 11.34375 -9.445312 11.179688 -9.953125 10.859375 -10.328125 C 10.535156 -10.710938 10.078125 -10.90625 9.484375 -10.90625 C 8.796875 -10.90625 8.238281 -10.679688 7.8125 -10.234375 C 7.394531 -9.785156 7.1875 -9.238281 7.1875 -8.59375 L 7.1875 0 L 1.65625 0 L 1.65625 -14.640625 L 6.1875 -14.640625 L 6.546875 -12.421875 C 7.117188 -13.203125 7.867188 -13.820312 8.796875 -14.28125 C 9.734375 -14.738281 10.722656 -14.96875 11.765625 -14.96875 Z M 11.765625 -14.96875 "/></g></g></g></g></svg>